<svg width="480" height="24" viewBox="0 0 480 24" fill="none" xmlns="http://www.w3.org/2000/svg">
<path d="M2.00185 0.00422903C2.00185 0.0972677 1.99769 0.160703 2.00185 0.224138C2.16002 1.98341 2.31818 3.74269 2.47219 5.5062C2.68863 8.00132 2.90091 10.4964 3.11735 12.9873C3.36292 15.787 3.61266 18.5824 3.84991 21.382C3.86656 21.585 3.93732 21.6738 4.12462 21.7245C6.7885 22.4688 9.44405 23.2174 12.1079 23.9574C12.2869 24.0082 12.5033 24.0167 12.6823 23.9659C15.3545 23.2216 18.0226 22.4646 20.6947 21.7161C20.8987 21.6569 20.9695 21.5638 20.9861 21.3524C21.0694 20.2951 21.1693 19.2336 21.2608 18.1764C21.4148 16.4255 21.5647 14.6747 21.7187 12.9239C21.8977 10.8686 22.0808 8.81752 22.2598 6.76222C22.393 5.23131 22.5345 3.70463 22.6677 2.17372C22.7301 1.45479 22.7842 0.735851 22.8425 0H2.00185V0.00422903ZM18.8217 6.11095C18.6844 7.65877 18.547 9.21082 18.4096 10.7586C18.2515 12.5391 18.0933 14.3195 17.9351 16.0957C17.8894 16.6074 17.8228 17.1191 17.8103 17.635C17.8019 17.9099 17.6854 17.9818 17.4606 18.0453C15.854 18.4851 14.2515 18.9376 12.649 19.3859C12.5783 19.407 12.5117 19.4324 12.4409 19.4535C12.4159 19.4408 12.391 19.4324 12.3618 19.4197C10.647 18.946 8.93208 18.4682 7.21722 17.9861C7.14646 17.9649 7.05488 17.8507 7.04656 17.7704C6.92585 16.4509 6.81763 15.1315 6.70109 13.7866H9.31918C9.36496 14.3153 9.41491 14.8523 9.45653 15.3937C9.494 15.8927 9.48983 15.8927 9.95185 16.0196C10.7801 16.2437 11.6126 16.4636 12.4409 16.6835L12.4326 16.6624C13.34 16.4171 14.2473 16.176 15.1547 15.9138C15.238 15.8885 15.3337 15.7531 15.3462 15.6601C15.4003 15.2541 15.4294 14.8439 15.4627 14.4379C15.5168 13.7824 15.571 13.1269 15.6292 12.4418H12.4326L12.4409 12.4249C12.4201 12.4249 12.3951 12.4249 12.3743 12.4249H6.58038C6.5013 11.5495 6.42638 10.6825 6.34729 9.7902H12.3785C12.3993 9.7902 12.4243 9.7902 12.4451 9.7902L12.4367 9.77328H15.8623C15.9414 8.86404 16.0205 7.97595 16.0996 7.07094H12.4326L12.4409 7.05402C12.4201 7.05402 12.3951 7.05402 12.3743 7.05402C10.3223 7.05825 8.27028 7.05825 6.21826 7.06248C6.18913 7.06248 6.15999 7.04979 6.10588 7.03287C6.03096 6.17015 5.95187 5.30743 5.87695 4.41933H12.3743C12.3951 4.41933 12.4201 4.41933 12.4409 4.41933L12.4326 4.40242H18.9591C18.9133 4.99448 18.8675 5.55271 18.8217 6.11095Z" fill="#3DCFB6"/>
<path d="M33.104 17.692C32.2187 17.692 31.456 17.4707 30.816 17.028C30.176 16.58 29.6827 15.9613 29.336 15.172C28.9893 14.3773 28.816 13.4573 28.816 12.412C28.816 11.2973 29.0027 10.3587 29.376 9.596C29.7547 8.83333 30.2667 8.25733 30.912 7.868C31.5627 7.47333 32.2933 7.276 33.104 7.276C34.176 7.276 35.0373 7.54533 35.688 8.084C36.344 8.61733 36.7947 9.31333 37.04 10.172L35.696 10.444C35.488 9.82 35.1547 9.324 34.696 8.956C34.2427 8.58267 33.712 8.396 33.104 8.396C32.576 8.396 32.088 8.548 31.64 8.852C31.1973 9.15067 30.84 9.59867 30.568 10.196C30.296 10.7933 30.16 11.532 30.16 12.412C30.16 13.212 30.2667 13.924 30.48 14.548C30.6987 15.172 31.024 15.6627 31.456 16.02C31.8933 16.3773 32.4427 16.556 33.104 16.556C33.8987 16.556 34.528 16.3427 34.992 15.916C35.4613 15.4893 35.696 14.9293 35.696 14.236H37.056C37.056 14.956 36.8907 15.5747 36.56 16.092C36.2293 16.604 35.7653 16.9987 35.168 17.276C34.576 17.5533 33.888 17.692 33.104 17.692ZM42.6445 17.692C41.9725 17.692 41.3565 17.572 40.7965 17.332C40.2365 17.0867 39.7858 16.7267 39.4445 16.252C39.1032 15.7773 38.9272 15.1907 38.9165 14.492H40.1325C40.1325 14.9613 40.2472 15.348 40.4765 15.652C40.7058 15.9507 41.0098 16.1747 41.3885 16.324C41.7672 16.468 42.1805 16.54 42.6285 16.54C43.1138 16.54 43.5352 16.4627 43.8925 16.308C44.2498 16.1533 44.5245 15.9507 44.7165 15.7C44.9138 15.444 45.0125 15.164 45.0125 14.86C45.0125 14.4333 44.8818 14.0893 44.6205 13.828C44.3592 13.5613 43.9725 13.3453 43.4605 13.18L41.6845 12.556C40.8525 12.2573 40.2232 11.916 39.7965 11.532C39.3698 11.148 39.1565 10.6093 39.1565 9.916C39.1565 9.13733 39.4552 8.50267 40.0525 8.012C40.6552 7.52133 41.5085 7.276 42.6125 7.276C43.6365 7.276 44.4365 7.51333 45.0125 7.988C45.5885 8.45733 45.9192 9.08933 46.0045 9.884H44.7725C44.6925 9.42 44.4738 9.06 44.1165 8.804C43.7645 8.54267 43.2632 8.412 42.6125 8.412C41.9512 8.412 41.4365 8.55867 41.0685 8.852C40.7005 9.14533 40.5165 9.516 40.5165 9.964C40.5165 10.332 40.6312 10.6253 40.8605 10.844C41.0952 11.0573 41.4605 11.2493 41.9565 11.42L44.0365 12.14C44.7565 12.38 45.3245 12.716 45.7405 13.148C46.1618 13.58 46.3725 14.14 46.3725 14.828C46.3725 15.3613 46.2285 15.844 45.9405 16.276C45.6578 16.708 45.2392 17.052 44.6845 17.308C44.1298 17.564 43.4498 17.692 42.6445 17.692ZM52.3164 17.692C51.6444 17.692 51.0284 17.572 50.4684 17.332C49.9084 17.0867 49.4577 16.7267 49.1164 16.252C48.775 15.7773 48.599 15.1907 48.5884 14.492H49.8044C49.8044 14.9613 49.919 15.348 50.1484 15.652C50.3777 15.9507 50.6817 16.1747 51.0604 16.324C51.439 16.468 51.8524 16.54 52.3004 16.54C52.7857 16.54 53.207 16.4627 53.5644 16.308C53.9217 16.1533 54.1964 15.9507 54.3884 15.7C54.5857 15.444 54.6844 15.164 54.6844 14.86C54.6844 14.4333 54.5537 14.0893 54.2924 13.828C54.031 13.5613 53.6444 13.3453 53.1324 13.18L51.3564 12.556C50.5244 12.2573 49.895 11.916 49.4684 11.532C49.0417 11.148 48.8284 10.6093 48.8284 9.916C48.8284 9.13733 49.127 8.50267 49.7244 8.012C50.327 7.52133 51.1804 7.276 52.2844 7.276C53.3084 7.276 54.1084 7.51333 54.6844 7.988C55.2604 8.45733 55.591 9.08933 55.6764 9.884H54.4444C54.3644 9.42 54.1457 9.06 53.7884 8.804C53.4364 8.54267 52.935 8.412 52.2844 8.412C51.623 8.412 51.1084 8.55867 50.7404 8.852C50.3724 9.14533 50.1884 9.516 50.1884 9.964C50.1884 10.332 50.303 10.6253 50.5324 10.844C50.767 11.0573 51.1324 11.2493 51.6284 11.42L53.7084 12.14C54.4284 12.38 54.9964 12.716 55.4124 13.148C55.8337 13.58 56.0444 14.14 56.0444 14.828C56.0444 15.3613 55.9004 15.844 55.6124 16.276C55.3297 16.708 54.911 17.052 54.3564 17.308C53.8017 17.564 53.1217 17.692 52.3164 17.692Z" fill="white"/>
<path d="M85.9999 19.4136L91.5112 17.9064L92.2544 9.7728H82.4522L82.2088 7.068H92.4989L92.7697 4.4148H79.2301L79.9888 12.4284H89.3174L89.0061 15.8676L85.9999 16.668L82.9938 15.8676L82.8053 13.6548H80.0974L80.4898 17.9076L85.9999 19.4136ZM75.2637 0H96.7362L94.8001 21.6L85.9999 24L77.1998 21.6L75.2637 0Z" fill="#3DCFB6"/>
<path d="M103.616 7.452H104.864V11.884H109.84V7.452H111.072V17.5H109.84V12.956H104.864V17.5H103.616V7.452ZM112.799 8.524V7.452H120.623V8.524H117.047L117.327 8.236V17.5H116.079V8.236L116.359 8.524H112.799ZM122.335 7.452H124.127L127.583 14.396H127.455L130.911 7.452H132.655V17.5H131.391V8.748H131.615L127.935 16.236H127.103L123.439 8.796H123.583V17.5H122.335V7.452ZM137.13 7.452V16.412H141.61V17.5H135.882V7.452H137.13Z" fill="white"/>
<path d="M161 19.3376L163.957 0.460691C164.002 0.187771 164.275 -0.0396618 164.548 0.00582481C164.73 0.0513114 164.867 0.142285 164.958 0.278744L168.005 6.01005L169.234 3.69024C169.37 3.41732 169.689 3.32634 169.961 3.4628C170.052 3.50829 170.143 3.59926 170.189 3.69024L178.423 19.3831H161V19.3376Z" fill="#3DCFB6" fill-opacity="0.5"/>
<path d="M171.19 12.0142L168.005 6.01001L161 19.3376L171.19 12.0142Z" fill="#3DCFB6" fill-opacity="0.5"/>
<path d="M178.422 19.3376L176.148 5.32775C176.103 5.00934 175.83 4.8274 175.511 4.87288C175.42 4.87288 175.284 4.96386 175.193 5.00934L161 19.3376L168.915 23.7953C169.416 24.0682 170.007 24.0682 170.507 23.7953L178.422 19.3376Z" fill="#3DCFB6"/>
<path d="M187.616 17.5V7.452H193.728V8.524H188.864V11.868H193.392V12.94H188.864V17.5H187.616ZM196.711 8.044C196.455 8.044 196.252 7.972 196.103 7.828C195.953 7.67867 195.879 7.484 195.879 7.244C195.879 7.00933 195.953 6.82267 196.103 6.684C196.252 6.54533 196.455 6.476 196.711 6.476C196.967 6.476 197.169 6.54533 197.319 6.684C197.468 6.82267 197.543 7.00933 197.543 7.244C197.543 7.484 197.468 7.67867 197.319 7.828C197.169 7.972 196.967 8.044 196.711 8.044ZM196.087 17.5V9.836H197.335V17.5H196.087ZM200.772 17.5V9.836H202.02V17.5H200.772ZM201.636 14.044C201.636 13.0733 201.73 12.268 201.916 11.628C202.103 10.9827 202.375 10.5027 202.732 10.188C203.095 9.868 203.535 9.708 204.052 9.708C204.223 9.708 204.378 9.72133 204.516 9.748C204.66 9.76933 204.804 9.804 204.948 9.852L204.868 11.084C204.719 11.036 204.556 10.996 204.38 10.964C204.204 10.9267 204.047 10.908 203.908 10.908C203.455 10.908 203.09 11.0387 202.812 11.3C202.535 11.556 202.332 11.9187 202.204 12.388C202.082 12.8573 202.02 13.4093 202.02 14.044H201.636ZM209.21 17.692C208.548 17.692 207.956 17.524 207.434 17.188C206.916 16.8467 206.506 16.3747 206.202 15.772C205.903 15.1693 205.754 14.476 205.754 13.692C205.754 12.8547 205.903 12.1347 206.202 11.532C206.5 10.9293 206.908 10.468 207.426 10.148C207.948 9.82267 208.543 9.66 209.21 9.66C209.791 9.66 210.287 9.77733 210.698 10.012C211.108 10.2467 211.439 10.564 211.69 10.964C211.94 11.364 212.114 11.8173 212.21 12.324C212.311 12.8253 212.34 13.3453 212.298 13.884H206.762V13.116H211.474L211.106 13.356C211.122 13.0413 211.103 12.7267 211.05 12.412C211.002 12.0973 210.908 11.8093 210.77 11.548C210.631 11.2813 210.436 11.068 210.186 10.908C209.935 10.748 209.615 10.668 209.226 10.668C208.735 10.668 208.324 10.7933 207.994 11.044C207.663 11.2947 207.415 11.6253 207.25 12.036C207.084 12.4413 207.002 12.8813 207.002 13.356V13.868C207.002 14.4013 207.082 14.8787 207.242 15.3C207.407 15.7213 207.652 16.0547 207.978 16.3C208.303 16.5453 208.714 16.668 209.21 16.668C209.706 16.668 210.114 16.548 210.434 16.308C210.754 16.068 210.948 15.7133 211.018 15.244H212.314C212.234 15.7507 212.052 16.188 211.77 16.556C211.487 16.9187 211.127 17.1987 210.69 17.396C210.252 17.5933 209.759 17.692 209.21 17.692ZM218.276 17.692C217.764 17.692 217.3 17.5587 216.884 17.292C216.474 17.0253 216.146 16.636 215.9 16.124C215.66 15.6067 215.54 14.9773 215.54 14.236H216.02C216.02 14.732 216.122 15.156 216.324 15.508C216.532 15.8547 216.799 16.1187 217.124 16.3C217.45 16.4813 217.791 16.572 218.148 16.572C218.559 16.572 218.935 16.4547 219.276 16.22C219.618 15.9853 219.89 15.6493 220.092 15.212C220.3 14.7747 220.404 14.252 220.404 13.644C220.404 13.0467 220.303 12.5347 220.1 12.108C219.898 11.676 219.623 11.3453 219.276 11.116C218.935 10.8813 218.554 10.764 218.132 10.764C217.77 10.764 217.426 10.8547 217.1 11.036C216.78 11.212 216.519 11.4733 216.316 11.82C216.119 12.1667 216.02 12.5933 216.02 13.1H215.54C215.54 12.3747 215.658 11.756 215.892 11.244C216.132 10.732 216.463 10.34 216.884 10.068C217.306 9.796 217.796 9.66 218.356 9.66C218.959 9.66 219.511 9.82267 220.012 10.148C220.519 10.468 220.924 10.9267 221.228 11.524C221.532 12.1213 221.684 12.828 221.684 13.644C221.684 14.4653 221.53 15.18 221.22 15.788C220.911 16.3907 220.498 16.86 219.98 17.196C219.463 17.5267 218.895 17.692 218.276 17.692ZM214.772 17.5V6.588H216.02V15.708L215.652 17.5H214.772ZM228.993 17.5L228.833 15.82V12.54C228.833 11.852 228.686 11.3587 228.393 11.06C228.099 10.756 227.659 10.604 227.073 10.604C226.742 10.604 226.441 10.652 226.169 10.748C225.902 10.844 225.689 10.9933 225.529 11.196C225.374 11.3933 225.297 11.6493 225.297 11.964H223.905C223.905 11.4093 224.041 10.964 224.313 10.628C224.585 10.2867 224.958 10.0413 225.433 9.892C225.913 9.73733 226.459 9.66 227.073 9.66C227.659 9.66 228.179 9.75867 228.633 9.956C229.086 10.1533 229.441 10.468 229.697 10.9C229.953 11.3267 230.081 11.884 230.081 12.572V17.5H228.993ZM226.385 17.692C225.755 17.692 225.235 17.58 224.825 17.356C224.414 17.132 224.107 16.8413 223.905 16.484C223.702 16.1267 223.601 15.7507 223.601 15.356C223.601 14.8387 223.729 14.4173 223.985 14.092C224.246 13.7667 224.601 13.5293 225.049 13.38C225.497 13.2253 226.001 13.148 226.561 13.148C226.961 13.148 227.361 13.188 227.761 13.268C228.166 13.348 228.561 13.4573 228.945 13.596V14.38C228.625 14.252 228.262 14.1507 227.857 14.076C227.457 14.0013 227.089 13.964 226.753 13.964C226.241 13.964 225.809 14.0707 225.457 14.284C225.105 14.492 224.929 14.8493 224.929 15.356C224.929 15.7293 225.062 16.0493 225.329 16.316C225.601 16.5827 226.033 16.716 226.625 16.716C227.041 16.716 227.414 16.62 227.745 16.428C228.081 16.2307 228.345 15.9853 228.537 15.692C228.734 15.3987 228.833 15.1053 228.833 14.812H229.137C229.137 15.324 229.025 15.7987 228.801 16.236C228.582 16.6733 228.267 17.0253 227.857 17.292C227.446 17.5587 226.955 17.692 226.385 17.692ZM235.821 17.692C235.08 17.692 234.461 17.588 233.965 17.38C233.469 17.1667 233.093 16.876 232.837 16.508C232.581 16.1347 232.445 15.708 232.429 15.228H233.629C233.656 15.7133 233.85 16.0787 234.213 16.324C234.581 16.564 235.08 16.684 235.709 16.684C236.04 16.684 236.344 16.6307 236.621 16.524C236.898 16.4173 237.12 16.2707 237.285 16.084C237.45 15.8973 237.533 15.6867 237.533 15.452C237.533 15.1533 237.424 14.9187 237.205 14.748C236.986 14.5773 236.637 14.428 236.157 14.3L234.669 13.82C234.024 13.6173 233.528 13.34 233.181 12.988C232.84 12.6307 232.669 12.204 232.669 11.708C232.669 11.0893 232.941 10.5933 233.485 10.22C234.029 9.84667 234.744 9.66 235.629 9.66C236.568 9.66 237.296 9.852 237.813 10.236C238.33 10.62 238.6 11.1 238.621 11.676H237.389C237.341 11.34 237.17 11.0867 236.877 10.916C236.584 10.74 236.168 10.652 235.629 10.652C235.112 10.652 234.706 10.7693 234.413 11.004C234.125 11.2333 233.981 11.4893 233.981 11.772C233.981 12.3 234.434 12.6893 235.341 12.94L236.861 13.452C237.517 13.6493 238.018 13.908 238.365 14.228C238.717 14.548 238.893 14.956 238.893 15.452C238.893 15.836 238.768 16.1987 238.517 16.54C238.266 16.8813 237.912 17.1587 237.453 17.372C236.994 17.5853 236.45 17.692 235.821 17.692ZM244.131 17.692C243.47 17.692 242.878 17.524 242.355 17.188C241.838 16.8467 241.427 16.3747 241.123 15.772C240.825 15.1693 240.675 14.476 240.675 13.692C240.675 12.8547 240.825 12.1347 241.123 11.532C241.422 10.9293 241.83 10.468 242.347 10.148C242.87 9.82267 243.465 9.66 244.131 9.66C244.713 9.66 245.209 9.77733 245.619 10.012C246.03 10.2467 246.361 10.564 246.611 10.964C246.862 11.364 247.035 11.8173 247.131 12.324C247.233 12.8253 247.262 13.3453 247.219 13.884H241.683V13.116H246.395L246.027 13.356C246.043 13.0413 246.025 12.7267 245.971 12.412C245.923 12.0973 245.83 11.8093 245.691 11.548C245.553 11.2813 245.358 11.068 245.107 10.908C244.857 10.748 244.537 10.668 244.147 10.668C243.657 10.668 243.246 10.7933 242.915 11.044C242.585 11.2947 242.337 11.6253 242.171 12.036C242.006 12.4413 241.923 12.8813 241.923 13.356V13.868C241.923 14.4013 242.003 14.8787 242.163 15.3C242.329 15.7213 242.574 16.0547 242.899 16.3C243.225 16.5453 243.635 16.668 244.131 16.668C244.627 16.668 245.035 16.548 245.355 16.308C245.675 16.068 245.87 15.7133 245.939 15.244H247.235C247.155 15.7507 246.974 16.188 246.691 16.556C246.409 16.9187 246.049 17.1987 245.611 17.396C245.174 17.5933 244.681 17.692 244.131 17.692Z" fill="white"/>
<path d="M277.051 0L288.102 3.984L286.417 18.756L277.051 24L267.685 18.756L266 3.984L277.051 0ZM277.051 2.652L270.142 18.312H272.719L274.108 14.808H279.971L281.361 18.312H283.936L277.051 2.652ZM279.069 12.648H275.034L277.051 7.74L279.069 12.648Z" fill="#3DCFB6"/>
<path d="M293.416 17.5L296.872 7.452H298.392L301.768 17.5H300.456L299.608 14.924H295.608L294.728 17.5H293.416ZM295.928 13.948H299.288L297.608 8.972L295.928 13.948ZM309.244 17.5V13.004C309.244 12.2733 309.068 11.7187 308.716 11.34C308.369 10.956 307.894 10.764 307.292 10.764C306.833 10.764 306.436 10.8893 306.1 11.14C305.764 11.3907 305.505 11.7507 305.324 12.22C305.142 12.684 305.052 13.2387 305.052 13.884H304.572C304.572 12.9933 304.689 12.2333 304.924 11.604C305.158 10.9747 305.5 10.4947 305.948 10.164C306.401 9.828 306.95 9.66 307.596 9.66C308.198 9.66 308.713 9.796 309.14 10.068C309.572 10.3347 309.902 10.7187 310.132 11.22C310.361 11.7213 310.476 12.316 310.476 13.004V17.5H309.244ZM303.804 17.5V9.852H304.876L305.052 11.612V17.5H303.804ZM316.164 21.436C315.38 21.436 314.7 21.324 314.124 21.1C313.548 20.8813 313.1 20.5853 312.78 20.212C312.465 19.844 312.308 19.436 312.308 18.988C312.308 18.396 312.524 17.9427 312.956 17.628C313.393 17.3187 313.956 17.164 314.644 17.164L315.332 17.596C314.756 17.596 314.31 17.716 313.996 17.956C313.681 18.196 313.524 18.524 313.524 18.94C313.524 19.356 313.748 19.708 314.196 19.996C314.644 20.284 315.3 20.428 316.164 20.428C316.804 20.428 317.364 20.3347 317.844 20.148C318.329 19.9667 318.705 19.7267 318.972 19.428C319.244 19.1347 319.38 18.8173 319.38 18.476C319.38 18.236 319.292 18.028 319.116 17.852C318.94 17.6813 318.67 17.596 318.308 17.596H315.332C314.814 17.596 314.366 17.5187 313.988 17.364C313.614 17.204 313.326 16.996 313.124 16.74C312.921 16.484 312.82 16.204 312.82 15.9C312.82 15.58 312.91 15.308 313.092 15.084C313.273 14.86 313.508 14.6893 313.796 14.572C314.089 14.4547 314.404 14.396 314.74 14.396L314.98 14.86C314.82 14.86 314.657 14.8973 314.492 14.972C314.332 15.0413 314.196 15.148 314.084 15.292C313.977 15.4307 313.924 15.6067 313.924 15.82C313.924 16.0653 314.025 16.2707 314.228 16.436C314.43 16.6013 314.798 16.684 315.332 16.684H318.308C319.028 16.684 319.593 16.836 320.004 17.14C320.42 17.444 320.628 17.868 320.628 18.412C320.628 18.9133 320.449 19.3933 320.092 19.852C319.734 20.316 319.222 20.6947 318.556 20.988C317.889 21.2867 317.092 21.436 316.164 21.436ZM316.388 15.26C315.801 15.26 315.27 15.1427 314.796 14.908C314.326 14.6733 313.953 14.3453 313.676 13.924C313.404 13.5027 313.268 13.0147 313.268 12.46C313.268 11.9 313.404 11.4093 313.676 10.988C313.953 10.5667 314.326 10.2413 314.796 10.012C315.27 9.77733 315.801 9.66 316.388 9.66C316.958 9.66 317.476 9.77733 317.94 10.012C318.409 10.2413 318.782 10.5667 319.06 10.988C319.337 11.4093 319.476 11.9 319.476 12.46C319.476 13.0147 319.337 13.5027 319.06 13.924C318.782 14.3453 318.409 14.6733 317.94 14.908C317.476 15.1427 316.958 15.26 316.388 15.26ZM316.388 14.364C316.974 14.364 317.43 14.1827 317.756 13.82C318.081 13.4573 318.244 13.004 318.244 12.46C318.244 11.9 318.081 11.4467 317.756 11.1C317.43 10.748 316.974 10.572 316.388 10.572C315.806 10.572 315.348 10.748 315.012 11.1C314.681 11.4467 314.516 11.9 314.516 12.46C314.516 13.004 314.681 13.4573 315.012 13.82C315.348 14.1827 315.806 14.364 316.388 14.364ZM318.9 10.876L318.308 10.636C318.308 10.188 318.396 9.796 318.572 9.46C318.748 9.11867 318.998 8.85467 319.324 8.668C319.649 8.476 320.036 8.38 320.484 8.38L320.388 9.612C319.908 9.612 319.54 9.716 319.284 9.924C319.028 10.1267 318.9 10.444 318.9 10.876ZM327.691 9.836H328.939V17.5H327.691V9.836ZM322.267 9.836H323.515V14.604C323.515 15.244 323.67 15.7293 323.979 16.06C324.294 16.3907 324.742 16.556 325.323 16.556C325.803 16.556 326.219 16.428 326.571 16.172C326.928 15.916 327.203 15.564 327.395 15.116C327.592 14.6627 327.691 14.1453 327.691 13.564H328.155C328.155 14.4227 328.03 15.156 327.779 15.764C327.534 16.372 327.184 16.8387 326.731 17.164C326.283 17.484 325.755 17.644 325.147 17.644C324.571 17.644 324.067 17.5373 323.635 17.324C323.203 17.1107 322.867 16.788 322.627 16.356C322.387 15.9187 322.267 15.3667 322.267 14.7V9.836ZM332.179 17.5V6.588H333.427V17.5H332.179ZM341.399 17.5L341.239 15.82V12.54C341.239 11.852 341.092 11.3587 340.799 11.06C340.506 10.756 340.066 10.604 339.479 10.604C339.148 10.604 338.847 10.652 338.575 10.748C338.308 10.844 338.095 10.9933 337.935 11.196C337.78 11.3933 337.703 11.6493 337.703 11.964H336.311C336.311 11.4093 336.447 10.964 336.719 10.628C336.991 10.2867 337.364 10.0413 337.839 9.892C338.319 9.73733 338.866 9.66 339.479 9.66C340.066 9.66 340.586 9.75867 341.039 9.956C341.492 10.1533 341.847 10.468 342.103 10.9C342.359 11.3267 342.487 11.884 342.487 12.572V17.5H341.399ZM338.791 17.692C338.162 17.692 337.642 17.58 337.231 17.356C336.82 17.132 336.514 16.8413 336.311 16.484C336.108 16.1267 336.007 15.7507 336.007 15.356C336.007 14.8387 336.135 14.4173 336.391 14.092C336.652 13.7667 337.007 13.5293 337.455 13.38C337.903 13.2253 338.407 13.148 338.967 13.148C339.367 13.148 339.767 13.188 340.167 13.268C340.572 13.348 340.967 13.4573 341.351 13.596V14.38C341.031 14.252 340.668 14.1507 340.263 14.076C339.863 14.0013 339.495 13.964 339.159 13.964C338.647 13.964 338.215 14.0707 337.863 14.284C337.511 14.492 337.335 14.8493 337.335 15.356C337.335 15.7293 337.468 16.0493 337.735 16.316C338.007 16.5827 338.439 16.716 339.031 16.716C339.447 16.716 339.82 16.62 340.151 16.428C340.487 16.2307 340.751 15.9853 340.943 15.692C341.14 15.3987 341.239 15.1053 341.239 14.812H341.543C341.543 15.324 341.431 15.7987 341.207 16.236C340.988 16.6733 340.674 17.0253 340.263 17.292C339.852 17.5587 339.362 17.692 338.791 17.692ZM345.475 17.5V9.836H346.723V17.5H345.475ZM346.339 14.044C346.339 13.0733 346.433 12.268 346.619 11.628C346.806 10.9827 347.078 10.5027 347.435 10.188C347.798 9.868 348.238 9.708 348.755 9.708C348.926 9.708 349.081 9.72133 349.219 9.748C349.363 9.76933 349.507 9.804 349.651 9.852L349.571 11.084C349.422 11.036 349.259 10.996 349.083 10.964C348.907 10.9267 348.75 10.908 348.611 10.908C348.158 10.908 347.793 11.0387 347.515 11.3C347.238 11.556 347.035 11.9187 346.907 12.388C346.785 12.8573 346.723 13.4093 346.723 14.044H346.339Z" fill="white"/>
<path d="M389.978 1.90996C389.803 0.993179 389.093 0.251023 388.187 0.0545703C388.143 0.0436562 388.099 0.0436562 388.045 0.0327422C388.034 0.0327422 388.023 0.0109141 388.012 0H367.977C367.966 0.0109141 367.955 0.0327422 367.934 0.0327422C367.027 0.185539 366.262 0.905866 366.055 1.82265C366.044 1.85539 366.022 1.89904 366 1.9427V22.0136C366.011 22.0355 366.033 22.0464 366.033 22.0682C366.251 23.0723 366.863 23.6944 367.857 23.9454C367.89 23.9563 367.912 23.9782 367.934 24H388.045C388.066 23.9891 388.077 23.9673 388.099 23.9563C389.093 23.7271 389.705 23.1269 389.956 22.1337C389.967 22.101 389.956 22.0573 389.967 22.0246C389.967 22.0136 389.989 22.0027 390 21.9918V1.97544C390 1.95362 389.978 1.9427 389.978 1.90996ZM379.928 13.3042H379.808C378.901 13.3042 377.984 13.3042 377.077 13.3042C377.033 13.3042 376.99 13.3042 376.946 13.3042C376.946 13.3151 376.935 13.3151 376.935 13.3261C376.935 13.3697 376.935 13.4134 376.935 13.457V21.8718H374.543V13.3151H371.538V11.4052H379.917V13.3042H379.928ZM387.99 19.0123C387.968 19.3834 387.914 19.7435 387.761 20.0928C387.717 20.2019 387.684 20.3001 387.629 20.4093C387.433 20.824 387.105 21.1187 386.723 21.3588C386.286 21.6317 385.805 21.7844 385.303 21.8827C384.746 21.9918 384.188 22.0246 383.62 22.0027C383.347 21.9918 383.074 21.9918 382.801 21.9591C382.157 21.8827 381.523 21.7408 380.933 21.457C380.9 21.4461 380.857 21.3915 380.857 21.3588C380.857 20.6494 380.857 19.94 380.857 19.2306C380.857 19.2196 380.857 19.2087 380.857 19.1869C381.031 19.307 381.206 19.427 381.381 19.5252C381.807 19.7763 382.277 19.9509 382.757 20.06C383.173 20.1583 383.588 20.1692 384.003 20.1473C384.32 20.1364 384.636 20.06 384.92 19.9181C385.172 19.7872 385.379 19.6126 385.434 19.3179C385.488 19.0559 385.467 18.794 385.314 18.5648C385.095 18.2374 384.789 18.03 384.451 17.8554C384.068 17.6699 383.686 17.5061 383.293 17.3315C382.714 17.0696 382.146 16.7858 381.676 16.3493C381.294 15.9891 381.01 15.5634 380.878 15.0505C380.802 14.7449 380.78 14.4393 380.791 14.1337C380.802 13.3806 381.075 12.7367 381.61 12.2019C382.047 11.7653 382.583 11.5034 383.173 11.3506C383.577 11.2524 383.981 11.176 384.396 11.1651C384.691 11.1651 384.986 11.1323 385.27 11.1432C385.718 11.1542 386.155 11.176 386.592 11.2851C386.876 11.3615 387.171 11.4379 387.455 11.5034C387.509 11.5143 387.531 11.5471 387.531 11.6126C387.531 12.2892 387.531 12.9768 387.531 13.6535C387.531 13.6753 387.531 13.6971 387.52 13.7299C387.433 13.6753 387.356 13.6317 387.28 13.588C386.93 13.3915 386.559 13.2606 386.177 13.1623C385.751 13.0641 385.325 12.9986 384.888 13.0096C384.593 13.0205 384.287 13.0641 384.014 13.1623C383.675 13.2824 383.402 13.4789 383.282 13.839C383.183 14.1228 383.26 14.3629 383.435 14.5921C383.653 14.8759 383.948 15.0723 384.265 15.2251C384.691 15.4325 385.128 15.6071 385.543 15.8035C386.024 16.0327 386.504 16.2619 386.909 16.6003C387.258 16.895 387.575 17.2224 387.75 17.6589C387.848 17.9209 387.935 18.1937 387.935 18.4884C387.979 18.663 388.001 18.8377 387.99 19.0123Z" fill="#3DCFB6"/>
<path d="M394.096 8.524V7.452H401.92V8.524H398.344L398.624 8.236V17.5H397.376V8.236L397.656 8.524H394.096ZM401.133 9.852H402.525L405.021 16.412H404.733L406.669 9.852H407.949L405.069 19.036C404.829 19.804 404.509 20.396 404.109 20.812C403.709 21.228 403.197 21.436 402.573 21.436C402.237 21.436 401.917 21.388 401.613 21.292C401.315 21.196 401.005 21.0573 400.685 20.876V19.724C400.968 19.948 401.24 20.108 401.501 20.204C401.768 20.3 402.045 20.348 402.333 20.348C402.653 20.348 402.92 20.2467 403.133 20.044C403.352 19.8413 403.533 19.58 403.677 19.26C403.821 18.9453 403.944 18.6147 404.045 18.268L404.269 17.5L401.133 9.852ZM413.322 17.692C412.762 17.692 412.274 17.564 411.858 17.308C411.448 17.052 411.13 16.6787 410.906 16.188C410.682 15.692 410.57 15.0893 410.57 14.38H411.098C411.098 14.8547 411.197 15.2547 411.394 15.58C411.592 15.9053 411.848 16.1533 412.162 16.324C412.482 16.4893 412.821 16.572 413.178 16.572C413.562 16.572 413.93 16.4627 414.282 16.244C414.634 16.02 414.922 15.692 415.146 15.26C415.37 14.828 415.482 14.2947 415.482 13.66C415.482 13.052 415.378 12.532 415.17 12.1C414.968 11.668 414.693 11.3373 414.346 11.108C414 10.8787 413.616 10.764 413.194 10.764C412.832 10.764 412.49 10.852 412.17 11.028C411.85 11.204 411.592 11.4627 411.394 11.804C411.197 12.14 411.098 12.556 411.098 13.052H410.57C410.57 12.3107 410.693 11.6893 410.938 11.188C411.184 10.6813 411.517 10.3 411.938 10.044C412.36 9.788 412.832 9.66 413.354 9.66C413.952 9.66 414.509 9.82 415.026 10.14C415.544 10.46 415.962 10.9187 416.282 11.516C416.602 12.1133 416.762 12.828 416.762 13.66C416.762 14.5027 416.6 15.2253 416.274 15.828C415.954 16.4307 415.533 16.892 415.01 17.212C414.488 17.532 413.925 17.692 413.322 17.692ZM409.85 21.26V9.852H410.89L411.098 11.644V21.26H409.85ZM421.866 17.692C421.204 17.692 420.612 17.524 420.09 17.188C419.572 16.8467 419.162 16.3747 418.858 15.772C418.559 15.1693 418.41 14.476 418.41 13.692C418.41 12.8547 418.559 12.1347 418.858 11.532C419.156 10.9293 419.564 10.468 420.082 10.148C420.604 9.82267 421.199 9.66 421.866 9.66C422.447 9.66 422.943 9.77733 423.354 10.012C423.764 10.2467 424.095 10.564 424.346 10.964C424.596 11.364 424.77 11.8173 424.866 12.324C424.967 12.8253 424.996 13.3453 424.954 13.884H419.418V13.116H424.13L423.762 13.356C423.778 13.0413 423.759 12.7267 423.706 12.412C423.658 12.0973 423.564 11.8093 423.426 11.548C423.287 11.2813 423.092 11.068 422.842 10.908C422.591 10.748 422.271 10.668 421.882 10.668C421.391 10.668 420.98 10.7933 420.65 11.044C420.319 11.2947 420.071 11.6253 419.906 12.036C419.74 12.4413 419.658 12.8813 419.658 13.356V13.868C419.658 14.4013 419.738 14.8787 419.898 15.3C420.063 15.7213 420.308 16.0547 420.634 16.3C420.959 16.5453 421.37 16.668 421.866 16.668C422.362 16.668 422.77 16.548 423.09 16.308C423.41 16.068 423.604 15.7133 423.674 15.244H424.97C424.89 15.7507 424.708 16.188 424.426 16.556C424.143 16.9187 423.783 17.1987 423.346 17.396C422.908 17.5933 422.415 17.692 421.866 17.692ZM430.645 17.692C429.973 17.692 429.357 17.572 428.797 17.332C428.237 17.0867 427.786 16.7267 427.445 16.252C427.103 15.7773 426.927 15.1907 426.917 14.492H428.133C428.133 14.9613 428.247 15.348 428.477 15.652C428.706 15.9507 429.01 16.1747 429.389 16.324C429.767 16.468 430.181 16.54 430.629 16.54C431.114 16.54 431.535 16.4627 431.893 16.308C432.25 16.1533 432.525 15.9507 432.717 15.7C432.914 15.444 433.013 15.164 433.013 14.86C433.013 14.4333 432.882 14.0893 432.621 13.828C432.359 13.5613 431.973 13.3453 431.461 13.18L429.685 12.556C428.853 12.2573 428.223 11.916 427.797 11.532C427.37 11.148 427.157 10.6093 427.157 9.916C427.157 9.13733 427.455 8.50267 428.053 8.012C428.655 7.52133 429.509 7.276 430.613 7.276C431.637 7.276 432.437 7.51333 433.013 7.988C433.589 8.45733 433.919 9.08933 434.005 9.884H432.773C432.693 9.42 432.474 9.06 432.117 8.804C431.765 8.54267 431.263 8.412 430.613 8.412C429.951 8.412 429.437 8.55867 429.069 8.852C428.701 9.14533 428.517 9.516 428.517 9.964C428.517 10.332 428.631 10.6253 428.861 10.844C429.095 11.0573 429.461 11.2493 429.957 11.42L432.037 12.14C432.757 12.38 433.325 12.716 433.741 13.148C434.162 13.58 434.373 14.14 434.373 14.828C434.373 15.3613 434.229 15.844 433.941 16.276C433.658 16.708 433.239 17.052 432.685 17.308C432.13 17.564 431.45 17.692 430.645 17.692ZM439.788 17.692C439.175 17.692 438.602 17.5267 438.068 17.196C437.54 16.8653 437.114 16.3987 436.788 15.796C436.463 15.1933 436.3 14.4813 436.3 13.66C436.3 12.8173 436.463 12.0973 436.788 11.5C437.114 10.9027 437.54 10.4467 438.068 10.132C438.602 9.81733 439.175 9.66 439.788 9.66C440.22 9.66 440.607 9.72667 440.948 9.86C441.295 9.988 441.596 10.1667 441.852 10.396C442.108 10.6253 442.319 10.8867 442.484 11.18C442.655 11.468 442.78 11.772 442.86 12.092L441.58 12.204C441.447 11.7613 441.223 11.412 440.908 11.156C440.599 10.8947 440.22 10.764 439.772 10.764C439.394 10.764 439.036 10.8733 438.7 11.092C438.37 11.3053 438.1 11.628 437.892 12.06C437.684 12.4867 437.58 13.02 437.58 13.66C437.58 14.252 437.674 14.7667 437.86 15.204C438.052 15.636 438.314 15.972 438.644 16.212C438.975 16.452 439.351 16.572 439.772 16.572C440.364 16.572 440.812 16.428 441.116 16.14C441.426 15.8467 441.58 15.4413 441.58 14.924H442.86C442.86 15.4573 442.735 15.932 442.484 16.348C442.234 16.764 441.876 17.092 441.412 17.332C440.954 17.572 440.412 17.692 439.788 17.692ZM445.35 17.5V9.836H446.598V17.5H445.35ZM446.214 14.044C446.214 13.0733 446.308 12.268 446.494 11.628C446.681 10.9827 446.953 10.5027 447.31 10.188C447.673 9.868 448.113 9.708 448.63 9.708C448.801 9.708 448.956 9.72133 449.094 9.748C449.238 9.76933 449.382 9.804 449.526 9.852L449.446 11.084C449.297 11.036 449.134 10.996 448.958 10.964C448.782 10.9267 448.625 10.908 448.486 10.908C448.033 10.908 447.668 11.0387 447.39 11.3C447.113 11.556 446.91 11.9187 446.782 12.388C446.66 12.8573 446.598 13.4093 446.598 14.044H446.214ZM451.836 8.044C451.58 8.044 451.377 7.972 451.228 7.828C451.078 7.67867 451.004 7.484 451.004 7.244C451.004 7.00933 451.078 6.82267 451.228 6.684C451.377 6.54533 451.58 6.476 451.836 6.476C452.092 6.476 452.294 6.54533 452.444 6.684C452.593 6.82267 452.668 7.00933 452.668 7.244C452.668 7.484 452.593 7.67867 452.444 7.828C452.294 7.972 452.092 8.044 451.836 8.044ZM451.212 17.5V9.836H452.46V17.5H451.212ZM459.369 17.692C458.809 17.692 458.321 17.564 457.905 17.308C457.495 17.052 457.177 16.6787 456.953 16.188C456.729 15.692 456.617 15.0893 456.617 14.38H457.145C457.145 14.8547 457.244 15.2547 457.441 15.58C457.639 15.9053 457.895 16.1533 458.209 16.324C458.529 16.4893 458.868 16.572 459.225 16.572C459.609 16.572 459.977 16.4627 460.329 16.244C460.681 16.02 460.969 15.692 461.193 15.26C461.417 14.828 461.529 14.2947 461.529 13.66C461.529 13.052 461.425 12.532 461.217 12.1C461.015 11.668 460.74 11.3373 460.393 11.108C460.047 10.8787 459.663 10.764 459.241 10.764C458.879 10.764 458.537 10.852 458.217 11.028C457.897 11.204 457.639 11.4627 457.441 11.804C457.244 12.14 457.145 12.556 457.145 13.052H456.617C456.617 12.3107 456.74 11.6893 456.985 11.188C457.231 10.6813 457.564 10.3 457.985 10.044C458.407 9.788 458.879 9.66 459.401 9.66C459.999 9.66 460.556 9.82 461.073 10.14C461.591 10.46 462.009 10.9187 462.329 11.516C462.649 12.1133 462.809 12.828 462.809 13.66C462.809 14.5027 462.647 15.2253 462.321 15.828C462.001 16.4307 461.58 16.892 461.057 17.212C460.535 17.532 459.972 17.692 459.369 17.692ZM455.897 21.26V9.852H456.937L457.145 11.644V21.26H455.897ZM467.609 17.692C467.193 17.692 466.819 17.612 466.489 17.452C466.158 17.292 465.897 17.052 465.705 16.732C465.513 16.412 465.417 16.012 465.417 15.532V7.724H466.649V15.5C466.649 16.2893 467.017 16.684 467.753 16.684C467.971 16.684 468.182 16.66 468.385 16.612C468.593 16.564 468.825 16.492 469.081 16.396L469.257 17.292C468.985 17.4093 468.713 17.5053 468.441 17.58C468.174 17.6547 467.897 17.692 467.609 17.692ZM464.185 10.716V9.852H469.065V10.716H464.185Z" fill="white"/>
</svg>
